<svg xmlns="http://www.w3.org/2000/svg" viewBox="0 0 512 512">
  <defs>
    <linearGradient id="g" x1="0%" y1="0%" x2="100%" y2="100%">
      <stop offset="0%" stop-color="#0d9c80"/>
      <stop offset="100%" stop-color="#067a62"/>
    </linearGradient>
  </defs>
  <rect width="512" height="512" rx="100" fill="url(#g)"/>
  <g transform="translate(96,80)" fill="none" stroke="white" stroke-width="20" stroke-linecap="round" stroke-linejoin="round" opacity="0.95">
    <path d="M295 192c0 64-40 128-112 128-16 0-32-3-48-10l-58 58-23-23 58-58c-7-16-10-32-10-48 0-72 40-128 112-128 16 0 32 3 48 10l58-58 23 23-58 58c7 16 10 32 10 48z"/>
    <circle cx="192" cy="192" r="24" fill="white" stroke="none"/>
  </g>
</svg>
